<svg width="128" height="128" viewBox="0 0 128 128" xmlns="http://www.w3.org/2000/svg" role="img" aria-label="Windshield Repair (glassmorphism)">
  <defs>
    <radialGradient id="ws_glow" cx="50%" cy="65%" r="60%">
      <stop offset="0%" stop-color="#6be1ff" stop-opacity="1"/>
      <stop offset="50%" stop-color="#5b9dff" stop-opacity=".55"/>
      <stop offset="100%" stop-color="#8a4dff" stop-opacity="0"/>
    </radialGradient>
    <linearGradient id="ws_sheen" x1="0" y1="0" x2="0" y2="1">
      <stop offset="0%" stop-color="#ffffff" stop-opacity=".55"/>
      <stop offset="70%" stop-color="#ffffff" stop-opacity=".05"/>
      <stop offset="100%" stop-color="#ffffff" stop-opacity="0"/>
    </linearGradient>
    <linearGradient id="ws_stroke" x1="0" y1="0" x2="1" y2="1">
      <stop offset="0%" stop-color="#c6f2ff"/>
      <stop offset="100%" stop-color="#e9e6ff"/>
    </linearGradient>
    <filter id="softDrop" x="-50%" y="-50%" width="200%" height="200%">
      <feGaussianBlur in="SourceAlpha" stdDeviation="8" result="b"/>
      <feColorMatrix in="b" type="matrix" values="0 0 0 0 0  0 0 0 0 .5  0 0 0 0 1  0 0 0 .35 0"/>
      <feOffset dy="6"/>
      <feComposite in2="SourceGraphic" operator="over"/>
    </filter>
    <filter id="innerGlow" x="-50%" y="-50%" width="200%" height="200%">
      <feGaussianBlur stdDeviation="6" result="blur"/>
      <feComposite in="blur" in2="SourceGraphic" operator="atop"/>
    </filter>
  </defs>
  <ellipse cx="64" cy="86" rx="62" ry="44" fill="url(#ws_glow)" opacity=".55"/>
  <rect x="16" y="16" width="96" height="96" rx="24" fill="rgba(255,255,255,0.06)" filter="url(#softDrop)"/>
  <rect x="16" y="16" width="96" height="96" rx="24" fill="url(#ws_sheen)" style="mix-blend-mode:screen"/>
  <g transform="translate(0,2)" filter="url(#innerGlow)">
    <path d="M32 48c3-9 17-14 32-14s29 5 32 14l-3.5 28.5c-.5 3.8-3.4 6.5-7.2 6.5H42.7c-3.8 0-6.7-2.7-7.2-6.5L32 48Z"
          fill="rgba(255,255,255,0.08)" stroke="url(#ws_stroke)" stroke-width="2" stroke-linejoin="round"/>
    <path d="M40 76h48" stroke="url(#ws_stroke)" stroke-width="1.5" opacity=".5" stroke-linecap="round"/>
    <path d="M38 54c8-6 23-9 26-9 3 0 18 2 26 7" stroke="#fff" stroke-opacity=".25" stroke-width="2" fill="none"/>
  </g>
  <g transform="translate(0,2)">
    <circle cx="78" cy="62" r="2.4" fill="#fff"/>
    <path d="M78 55v14M71 62h14M73.5 58.5l9 9M82.5 58.5l-9 9"
          stroke="#fff" stroke-width="1.6" stroke-linecap="round" stroke-linejoin="round" opacity=".9"/>
    <circle cx="78" cy="62" r="12" fill="#7bd3ff" opacity=".25"/>
  </g>
</svg>
